<svg width="60" height="60" fill="none" xmlns="http://www.w3.org/2000/svg"><path stroke="#C3C2C1" d="M.5.5h59v59H.5z"/><path fill-rule="evenodd" clip-rule="evenodd" d="M26.725 21.834a7.771 7.771 0 0 1 3.797 0c2.213.557 3.697 1.66 4.545 3.197.843 1.527.98 3.336.759 5.117-.436 3.527-2.316 7.327-3.69 9.741l-.215.38h-6.595l-.216-.38c-1.373-2.414-3.253-6.214-3.689-9.74-.22-1.782-.084-3.591.759-5.118.849-1.537 2.333-2.64 4.545-3.197Zm3.492 1.667a6.527 6.527 0 0 0-3.187 0c-1.96.494-3.05 1.409-3.63 2.457-.584 1.06-.73 2.404-.54 3.946.366 2.958 1.925 6.281 3.247 8.66h5.033c1.322-2.379 2.881-5.702 3.247-8.66.19-1.542.045-2.887-.54-3.946-.58-1.048-1.67-1.963-3.63-2.457Zm1.315 20.178h-5.817v-1.705h5.817v1.705Z" fill="#2E2B26"/></svg>