<svg width="60" height="60" fill="none" xmlns="http://www.w3.org/2000/svg"><path stroke="#C3C2C1" d="M.5.5h59v59H.5z"/><path fill-rule="evenodd" clip-rule="evenodd" d="M29.942 22.408c.062-.081.129-.166.2-.254.512-.636 1.264-1.446 2.195-2.084.932-.638 2.09-1.137 3.393-1.063 1.32.076 2.67.733 3.98 2.176l.014.015.012.015c1.749 2.138 1.99 4.432 1.356 6.606-.62 2.124-2.064 4.111-3.645 5.79-1.59 1.687-3.375 3.12-4.754 4.126a39.779 39.779 0 0 1-2.2 1.495l-.135.084-.036.021-.01.006-.002.002h-.001l-.367-.648c-.366.649-.367.648-.367.648l-.004-.002-.01-.006-.035-.022a28.074 28.074 0 0 1-.63-.4 39.835 39.835 0 0 1-1.706-1.178c-1.378-1.007-3.163-2.439-4.753-4.127-1.582-1.678-3.026-3.665-3.646-5.789-.634-2.174-.392-4.468 1.356-6.607l.013-.014.013-.015c1.31-1.443 2.661-2.1 3.98-2.176 1.304-.074 2.462.424 3.393 1.063.932.638 1.684 1.448 2.196 2.084.07.088.138.173.2.254Zm0 16.287-.367.648.367.22.367-.22-.367-.648Zm0-.877.265-.17c.403-.264.975-.65 1.642-1.137 1.338-.976 3.045-2.349 4.551-3.947 1.516-1.608 2.774-3.389 3.296-5.176.505-1.73.328-3.484-1.064-5.195-1.108-1.214-2.12-1.638-2.983-1.688-.884-.05-1.731.284-2.503.813-.771.529-1.42 1.22-1.881 1.793a11.073 11.073 0 0 0-.662.913c-.015.024-.026.04-.032.052l-.007.011-.001.001-.621 1.039-.62-1.038-.002-.002-.007-.011a11.08 11.08 0 0 0-.694-.965c-.462-.573-1.11-1.264-1.881-1.793-.772-.529-1.62-.864-2.503-.813-.863.05-1.875.474-2.984 1.688-1.391 1.711-1.568 3.464-1.063 5.195.521 1.787 1.78 3.568 3.296 5.176 1.506 1.598 3.212 2.97 4.55 3.947a38.41 38.41 0 0 0 1.908 1.307Z" fill="#2E2B26"/></svg>