<svg width="50" height="49" fill="none" xmlns="http://www.w3.org/2000/svg"><path fill-rule="evenodd" clip-rule="evenodd" d="M24.7 0C11.17 0 .2 10.969.2 24.5S11.17 49 24.7 49c13.531 0 24.5-10.969 24.5-24.5S38.231 0 24.7 0ZM13.216 16.844a3.828 3.828 0 0 1 3.828-3.828h15.312a3.828 3.828 0 0 1 3.829 3.828v15.312a3.828 3.828 0 0 1-3.829 3.828H17.044a3.828 3.828 0 0 1-3.828-3.828V16.844Zm-2.297 0a6.125 6.125 0 0 1 6.125-6.125h15.312a6.125 6.125 0 0 1 6.125 6.125v15.312a6.125 6.125 0 0 1-6.125 6.125H17.044a6.125 6.125 0 0 1-6.125-6.125V16.844ZM24.7 29.859a5.36 5.36 0 1 0 0-10.718 5.36 5.36 0 0 0 0 10.718Zm0 2.297a7.656 7.656 0 1 0 0-15.312 7.656 7.656 0 0 0 0 15.312Zm7.274-13.015a1.914 1.914 0 1 0 0-3.829 1.914 1.914 0 0 0 0 3.829Z" fill="#000"/></svg>