<svg width="60" height="60" fill="none" xmlns="http://www.w3.org/2000/svg"><path fill-rule="evenodd" clip-rule="evenodd" d="M19.5 24.889c0-2.536 1.99-4.639 4.5-4.639 2.048 0 3.748 1.398 4.306 3.29.53-.188 1.1-.29 1.694-.29.594 0 1.164.102 1.694.29.558-1.892 2.258-3.29 4.306-3.29 2.51 0 4.5 2.103 4.5 4.639 0 1.51-.705 2.865-1.805 3.716 2.396 1.078 4.055 3.55 4.055 6.395h-1.5c0-3.048-2.376-5.472-5.25-5.472v-1.5c1.631 0 3-1.38 3-3.14 0-1.759-1.369-3.138-3-3.138-1.436 0-2.668 1.069-2.943 2.525a5.214 5.214 0 0 1 2.068 4.17c0 1.764-.87 3.33-2.206 4.27 2.838 1.17 4.831 3.997 4.831 7.285h-1.5c0-3.524-2.81-6.361-6.25-6.361S23.75 36.476 23.75 40h-1.5c0-3.288 1.993-6.114 4.831-7.285a5.213 5.213 0 0 1-2.206-4.27c0-1.704.811-3.222 2.068-4.17-.275-1.456-1.507-2.525-2.943-2.525-1.631 0-3 1.38-3 3.139 0 1.76 1.369 3.139 3 3.139v1.5c-2.874 0-5.25 2.424-5.25 5.472h-1.5c0-2.846 1.66-5.317 4.055-6.395a4.691 4.691 0 0 1-1.805-3.716ZM30 24.75c-1.99 0-3.625 1.643-3.625 3.694 0 2.052 1.634 3.695 3.625 3.695 1.99 0 3.625-1.643 3.625-3.695 0-2.051-1.634-3.694-3.625-3.694Z" fill="#2E2B26"/><path stroke="#C3C2C1" d="M.5.5h59v59H.5z"/></svg>